<mxfile host="app.diagrams.net" agent="Mozilla/5.0 (Windows NT 10.0; Win64; x64; rv:138.0) Gecko/20100101 Firefox/138.0" version="27.0.6">
  <diagram name="Page-1" id="aWUXcd9DG55_SVHLmrhw">
    <mxGraphModel dx="2661" dy="2022" grid="1" gridSize="10" guides="1" tooltips="1" connect="1" arrows="1" fold="1" page="1" pageScale="1" pageWidth="850" pageHeight="1100" math="0" shadow="0">
      <root>
        <mxCell id="0" />
        <mxCell id="1" parent="0" />
        <mxCell id="ez_9y8IXUy5wVjMBMklD-14" style="edgeStyle=orthogonalEdgeStyle;rounded=0;orthogonalLoop=1;jettySize=auto;html=1;exitX=0.5;exitY=0.5;exitDx=0;exitDy=0;exitPerimeter=0;entryX=0;entryY=0.5;entryDx=0;entryDy=0;" parent="1" source="ez_9y8IXUy5wVjMBMklD-1" target="ez_9y8IXUy5wVjMBMklD-13" edge="1">
          <mxGeometry relative="1" as="geometry" />
        </mxCell>
        <mxCell id="ez_9y8IXUy5wVjMBMklD-29" style="edgeStyle=orthogonalEdgeStyle;rounded=0;orthogonalLoop=1;jettySize=auto;html=1;exitX=0.5;exitY=0.5;exitDx=0;exitDy=0;exitPerimeter=0;entryX=0;entryY=0.5;entryDx=0;entryDy=0;" parent="1" source="ez_9y8IXUy5wVjMBMklD-1" target="ez_9y8IXUy5wVjMBMklD-28" edge="1">
          <mxGeometry relative="1" as="geometry" />
        </mxCell>
        <mxCell id="ez_9y8IXUy5wVjMBMklD-81" style="edgeStyle=orthogonalEdgeStyle;rounded=0;orthogonalLoop=1;jettySize=auto;html=1;exitX=0.5;exitY=0.5;exitDx=0;exitDy=0;exitPerimeter=0;entryX=0;entryY=0.5;entryDx=0;entryDy=0;" parent="1" source="ez_9y8IXUy5wVjMBMklD-1" target="ez_9y8IXUy5wVjMBMklD-80" edge="1">
          <mxGeometry relative="1" as="geometry" />
        </mxCell>
        <object label="&lt;b&gt;User&lt;/b&gt;" id="ez_9y8IXUy5wVjMBMklD-1">
          <mxCell style="shape=umlActor;verticalLabelPosition=bottom;verticalAlign=top;html=1;outlineConnect=0;movable=1;resizable=1;rotatable=1;deletable=1;editable=1;locked=0;connectable=1;" parent="1" vertex="1">
            <mxGeometry x="-50" y="-10" width="30" height="60" as="geometry" />
          </mxCell>
        </object>
        <mxCell id="ez_9y8IXUy5wVjMBMklD-5" value="Fish App&amp;nbsp;" style="shape=umlFrame;whiteSpace=wrap;html=1;pointerEvents=0;width=130;height=20;" parent="1" vertex="1">
          <mxGeometry x="170" y="-520" width="1395.5" height="2090" as="geometry" />
        </mxCell>
        <mxCell id="ez_9y8IXUy5wVjMBMklD-16" style="edgeStyle=orthogonalEdgeStyle;rounded=0;orthogonalLoop=1;jettySize=auto;html=1;entryX=0;entryY=0.5;entryDx=0;entryDy=0;exitX=0.5;exitY=0.5;exitDx=0;exitDy=0;exitPerimeter=0;" parent="1" source="ez_9y8IXUy5wVjMBMklD-1" target="ez_9y8IXUy5wVjMBMklD-15" edge="1">
          <mxGeometry relative="1" as="geometry">
            <mxPoint x="40" y="280" as="sourcePoint" />
          </mxGeometry>
        </mxCell>
        <mxCell id="ez_9y8IXUy5wVjMBMklD-31" style="edgeStyle=orthogonalEdgeStyle;rounded=0;orthogonalLoop=1;jettySize=auto;html=1;exitX=1;exitY=1;exitDx=0;exitDy=0;exitPerimeter=0;entryX=0;entryY=0.5;entryDx=0;entryDy=0;" parent="1" source="ez_9y8IXUy5wVjMBMklD-8" target="ez_9y8IXUy5wVjMBMklD-30" edge="1">
          <mxGeometry relative="1" as="geometry" />
        </mxCell>
        <object label="&lt;b&gt;Rest.&lt;br&gt;Customer&lt;/b&gt;" id="ez_9y8IXUy5wVjMBMklD-8">
          <mxCell style="shape=umlActor;verticalLabelPosition=bottom;verticalAlign=top;html=1;outlineConnect=0;movable=1;resizable=1;rotatable=1;deletable=1;editable=1;locked=0;connectable=1;" parent="1" vertex="1">
            <mxGeometry x="80" y="480" width="30" height="60" as="geometry" />
          </mxCell>
        </object>
        <mxCell id="ez_9y8IXUy5wVjMBMklD-13" value="Caches FIsh&lt;br&gt;/Logs Fish." style="ellipse;whiteSpace=wrap;html=1;fillColor=#e1d5e7;strokeColor=#9673a6;" parent="1" vertex="1">
          <mxGeometry x="210" y="-260" width="140" height="70" as="geometry" />
        </mxCell>
        <mxCell id="ez_9y8IXUy5wVjMBMklD-15" value="Recipe Maker" style="ellipse;whiteSpace=wrap;html=1;fillColor=#e1d5e7;strokeColor=#9673a6;" parent="1" vertex="1">
          <mxGeometry x="260" y="-140" width="140" height="70" as="geometry" />
        </mxCell>
        <mxCell id="ez_9y8IXUy5wVjMBMklD-17" value="Order Food" style="ellipse;whiteSpace=wrap;html=1;fillColor=#e1d5e7;strokeColor=#9673a6;" parent="1" vertex="1">
          <mxGeometry x="330" y="900" width="140" height="70" as="geometry" />
        </mxCell>
        <mxCell id="ez_9y8IXUy5wVjMBMklD-18" style="edgeStyle=orthogonalEdgeStyle;rounded=0;orthogonalLoop=1;jettySize=auto;html=1;entryX=0.021;entryY=0.386;entryDx=0;entryDy=0;entryPerimeter=0;exitX=0.5;exitY=0.5;exitDx=0;exitDy=0;exitPerimeter=0;" parent="1" source="ez_9y8IXUy5wVjMBMklD-8" target="ez_9y8IXUy5wVjMBMklD-17" edge="1">
          <mxGeometry relative="1" as="geometry" />
        </mxCell>
        <mxCell id="ez_9y8IXUy5wVjMBMklD-20" value="Rates Food" style="ellipse;whiteSpace=wrap;html=1;fillColor=#e1d5e7;strokeColor=#9673a6;" parent="1" vertex="1">
          <mxGeometry x="420" y="1160" width="140" height="70" as="geometry" />
        </mxCell>
        <mxCell id="ez_9y8IXUy5wVjMBMklD-21" style="edgeStyle=orthogonalEdgeStyle;rounded=0;orthogonalLoop=1;jettySize=auto;html=1;exitX=1;exitY=1;exitDx=0;exitDy=0;exitPerimeter=0;entryX=0.007;entryY=0.614;entryDx=0;entryDy=0;entryPerimeter=0;" parent="1" source="ez_9y8IXUy5wVjMBMklD-8" target="ez_9y8IXUy5wVjMBMklD-20" edge="1">
          <mxGeometry relative="1" as="geometry" />
        </mxCell>
        <mxCell id="ez_9y8IXUy5wVjMBMklD-28" value="Checks weather." style="ellipse;whiteSpace=wrap;html=1;fillColor=#e1d5e7;strokeColor=#9673a6;" parent="1" vertex="1">
          <mxGeometry x="190" y="120" width="140" height="70" as="geometry" />
        </mxCell>
        <mxCell id="ez_9y8IXUy5wVjMBMklD-30" value="Searches Recipes/Food" style="ellipse;whiteSpace=wrap;html=1;fillColor=#e1d5e7;strokeColor=#9673a6;" parent="1" vertex="1">
          <mxGeometry x="320" y="1460" width="140" height="70" as="geometry" />
        </mxCell>
        <mxCell id="ez_9y8IXUy5wVjMBMklD-34" value="Cancel Order" style="ellipse;whiteSpace=wrap;html=1;" parent="1" vertex="1">
          <mxGeometry x="976.5" y="850" width="140" height="70" as="geometry" />
        </mxCell>
        <mxCell id="ez_9y8IXUy5wVjMBMklD-48" value="By rating (desc)" style="ellipse;whiteSpace=wrap;html=1;" parent="1" vertex="1">
          <mxGeometry x="1150.25" y="1290" width="140" height="70" as="geometry" />
        </mxCell>
        <mxCell id="ez_9y8IXUy5wVjMBMklD-49" value="By name A-Z" style="ellipse;whiteSpace=wrap;html=1;" parent="1" vertex="1">
          <mxGeometry x="1150.25" y="1390" width="140" height="70" as="geometry" />
        </mxCell>
        <mxCell id="ez_9y8IXUy5wVjMBMklD-50" value="By price lowâ†’high" style="ellipse;whiteSpace=wrap;html=1;" parent="1" vertex="1">
          <mxGeometry x="1129.75" y="1490" width="140" height="70" as="geometry" />
        </mxCell>
        <mxCell id="ez_9y8IXUy5wVjMBMklD-80" value="Serches info&lt;br&gt;for Bait" style="ellipse;whiteSpace=wrap;html=1;fillColor=#e1d5e7;strokeColor=#9673a6;" parent="1" vertex="1">
          <mxGeometry x="320" y="4" width="140" height="70" as="geometry" />
        </mxCell>
        <object label="&lt;b&gt;Chef&lt;/b&gt;" id="ez_9y8IXUy5wVjMBMklD-121">
          <mxCell style="shape=umlActor;verticalLabelPosition=bottom;verticalAlign=top;html=1;outlineConnect=0;movable=1;resizable=1;rotatable=1;deletable=1;editable=1;locked=0;connectable=1;" parent="1" vertex="1">
            <mxGeometry x="-250" y="258" width="30" height="60" as="geometry" />
          </mxCell>
        </object>
        <object label="&lt;b&gt;Fisherman&lt;/b&gt;" id="ez_9y8IXUy5wVjMBMklD-122">
          <mxCell style="shape=umlActor;verticalLabelPosition=bottom;verticalAlign=top;html=1;outlineConnect=0;movable=1;resizable=1;rotatable=1;deletable=1;editable=1;locked=0;connectable=1;" parent="1" vertex="1">
            <mxGeometry x="-40" y="238" width="30" height="56" as="geometry" />
          </mxCell>
        </object>
        <mxCell id="mqHruLJRzrLuczPYelR6-5" value="" style="shape=waypoint;sketch=0;fillStyle=solid;size=6;pointerEvents=1;points=[];fillColor=none;resizable=0;rotatable=0;perimeter=centerPerimeter;snapToPoint=1;" parent="1" vertex="1">
          <mxGeometry x="-130" y="180" width="20" height="20" as="geometry" />
        </mxCell>
        <mxCell id="mqHruLJRzrLuczPYelR6-11" value="Sort Food" style="ellipse;whiteSpace=wrap;html=1;" parent="1" vertex="1">
          <mxGeometry x="620" y="1430" width="140" height="70" as="geometry" />
        </mxCell>
        <mxCell id="mqHruLJRzrLuczPYelR6-15" value="Extends" style="endArrow=block;endSize=16;endFill=0;html=1;rounded=0;exitX=0.5;exitY=0;exitDx=0;exitDy=0;exitPerimeter=0;entryX=0.5;entryY=1.5;entryDx=0;entryDy=0;entryPerimeter=0;" parent="1" source="ez_9y8IXUy5wVjMBMklD-121" target="mqHruLJRzrLuczPYelR6-5" edge="1">
          <mxGeometry width="160" relative="1" as="geometry">
            <mxPoint x="50" y="224" as="sourcePoint" />
            <mxPoint x="-100" y="214" as="targetPoint" />
          </mxGeometry>
        </mxCell>
        <mxCell id="mqHruLJRzrLuczPYelR6-16" value="Extends" style="endArrow=block;endSize=16;endFill=0;html=1;rounded=0;exitX=0.5;exitY=0.5;exitDx=0;exitDy=0;exitPerimeter=0;entryX=0.685;entryY=0.959;entryDx=0;entryDy=0;entryPerimeter=0;" parent="1" source="ez_9y8IXUy5wVjMBMklD-122" target="mqHruLJRzrLuczPYelR6-5" edge="1">
          <mxGeometry width="160" relative="1" as="geometry">
            <mxPoint x="-115" y="328" as="sourcePoint" />
            <mxPoint x="-130" y="204" as="targetPoint" />
          </mxGeometry>
        </mxCell>
        <mxCell id="mqHruLJRzrLuczPYelR6-17" value="Extends" style="endArrow=block;endSize=16;endFill=0;html=1;rounded=0;entryX=0.5;entryY=0.5;entryDx=0;entryDy=0;entryPerimeter=0;" parent="1" target="ez_9y8IXUy5wVjMBMklD-1" edge="1">
          <mxGeometry width="160" relative="1" as="geometry">
            <mxPoint x="-120" y="190" as="sourcePoint" />
            <mxPoint x="-100" y="210" as="targetPoint" />
          </mxGeometry>
        </mxCell>
        <mxCell id="mqHruLJRzrLuczPYelR6-19" value="Extends" style="endArrow=block;endSize=16;endFill=0;html=1;rounded=0;entryX=1;entryY=0.5;entryDx=0;entryDy=0;" parent="1" source="ez_9y8IXUy5wVjMBMklD-50" target="mqHruLJRzrLuczPYelR6-11" edge="1">
          <mxGeometry width="160" relative="1" as="geometry">
            <mxPoint x="702.5" y="988" as="sourcePoint" />
            <mxPoint x="697.5" y="874" as="targetPoint" />
          </mxGeometry>
        </mxCell>
        <mxCell id="mqHruLJRzrLuczPYelR6-21" value="Extends" style="endArrow=block;endSize=16;endFill=0;html=1;rounded=0;entryX=0.996;entryY=0.421;entryDx=0;entryDy=0;entryPerimeter=0;exitX=0;exitY=0.5;exitDx=0;exitDy=0;" parent="1" source="ez_9y8IXUy5wVjMBMklD-49" target="mqHruLJRzrLuczPYelR6-11" edge="1">
          <mxGeometry width="160" relative="1" as="geometry">
            <mxPoint x="720" y="914" as="sourcePoint" />
            <mxPoint x="880" y="914" as="targetPoint" />
          </mxGeometry>
        </mxCell>
        <mxCell id="mqHruLJRzrLuczPYelR6-22" value="Extends" style="endArrow=block;endSize=16;endFill=0;html=1;rounded=0;exitX=0.005;exitY=0.433;exitDx=0;exitDy=0;exitPerimeter=0;entryX=1;entryY=0;entryDx=0;entryDy=0;" parent="1" source="ez_9y8IXUy5wVjMBMklD-48" target="mqHruLJRzrLuczPYelR6-11" edge="1">
          <mxGeometry width="160" relative="1" as="geometry">
            <mxPoint x="720" y="894" as="sourcePoint" />
            <mxPoint x="880" y="894" as="targetPoint" />
          </mxGeometry>
        </mxCell>
        <mxCell id="mqHruLJRzrLuczPYelR6-26" value="&amp;lt;&amp;lt;include&amp;gt;&amp;gt;" style="html=1;verticalAlign=bottom;labelBackgroundColor=none;endArrow=open;endFill=0;dashed=1;rounded=0;entryX=0;entryY=0;entryDx=0;entryDy=0;exitX=0.985;exitY=0.671;exitDx=0;exitDy=0;exitPerimeter=0;" parent="1" source="ez_9y8IXUy5wVjMBMklD-30" target="mqHruLJRzrLuczPYelR6-11" edge="1">
          <mxGeometry x="-0.0442" y="8" width="160" relative="1" as="geometry">
            <mxPoint x="390" y="834" as="sourcePoint" />
            <mxPoint x="550" y="834" as="targetPoint" />
            <mxPoint as="offset" />
          </mxGeometry>
        </mxCell>
        <mxCell id="mqHruLJRzrLuczPYelR6-28" value="1 star" style="ellipse;whiteSpace=wrap;html=1;" parent="1" vertex="1">
          <mxGeometry x="1320" y="790" width="140" height="70" as="geometry" />
        </mxCell>
        <mxCell id="mqHruLJRzrLuczPYelR6-29" value="2 stars" style="ellipse;whiteSpace=wrap;html=1;" parent="1" vertex="1">
          <mxGeometry x="1325.5" y="900" width="140" height="70" as="geometry" />
        </mxCell>
        <mxCell id="mqHruLJRzrLuczPYelR6-30" value="3 stars" style="ellipse;whiteSpace=wrap;html=1;" parent="1" vertex="1">
          <mxGeometry x="1325.5" y="1020" width="140" height="70" as="geometry" />
        </mxCell>
        <mxCell id="mqHruLJRzrLuczPYelR6-31" value="Choose Rating" style="ellipse;whiteSpace=wrap;html=1;" parent="1" vertex="1">
          <mxGeometry x="1040" y="1080" width="140" height="70" as="geometry" />
        </mxCell>
        <mxCell id="mqHruLJRzrLuczPYelR6-32" value="Extends" style="endArrow=block;endSize=16;endFill=0;html=1;rounded=0;entryX=1;entryY=0.5;entryDx=0;entryDy=0;" parent="1" source="mqHruLJRzrLuczPYelR6-30" target="mqHruLJRzrLuczPYelR6-31" edge="1">
          <mxGeometry width="160" relative="1" as="geometry">
            <mxPoint x="1207.5" y="1074" as="sourcePoint" />
            <mxPoint x="1202.5" y="960" as="targetPoint" />
          </mxGeometry>
        </mxCell>
        <mxCell id="mqHruLJRzrLuczPYelR6-33" value="Extends" style="endArrow=block;endSize=16;endFill=0;html=1;rounded=0;entryX=0.996;entryY=0.421;entryDx=0;entryDy=0;entryPerimeter=0;exitX=0;exitY=0.5;exitDx=0;exitDy=0;" parent="1" source="mqHruLJRzrLuczPYelR6-29" target="mqHruLJRzrLuczPYelR6-31" edge="1">
          <mxGeometry width="160" relative="1" as="geometry">
            <mxPoint x="1225" y="1000" as="sourcePoint" />
            <mxPoint x="1385" y="1000" as="targetPoint" />
          </mxGeometry>
        </mxCell>
        <mxCell id="mqHruLJRzrLuczPYelR6-34" value="Extends" style="endArrow=block;endSize=16;endFill=0;html=1;rounded=0;exitX=0.005;exitY=0.433;exitDx=0;exitDy=0;exitPerimeter=0;entryX=1;entryY=0;entryDx=0;entryDy=0;" parent="1" source="mqHruLJRzrLuczPYelR6-28" target="mqHruLJRzrLuczPYelR6-31" edge="1">
          <mxGeometry x="-0.1237" width="160" relative="1" as="geometry">
            <mxPoint x="1270" y="704" as="sourcePoint" />
            <mxPoint x="1430" y="704" as="targetPoint" />
            <mxPoint y="1" as="offset" />
          </mxGeometry>
        </mxCell>
        <mxCell id="mqHruLJRzrLuczPYelR6-36" value="&amp;lt;&amp;lt;include&amp;gt;&amp;gt;" style="html=1;verticalAlign=bottom;labelBackgroundColor=none;endArrow=open;endFill=0;dashed=1;rounded=0;exitX=1;exitY=0.5;exitDx=0;exitDy=0;" parent="1" source="ez_9y8IXUy5wVjMBMklD-20" target="mqHruLJRzrLuczPYelR6-31" edge="1">
          <mxGeometry x="-0.0442" y="8" width="160" relative="1" as="geometry">
            <mxPoint x="1010" y="644" as="sourcePoint" />
            <mxPoint x="1153" y="727" as="targetPoint" />
            <mxPoint as="offset" />
          </mxGeometry>
        </mxCell>
        <mxCell id="mqHruLJRzrLuczPYelR6-39" value="Recipe can&#39;t be made" style="ellipse;whiteSpace=wrap;html=1;" parent="1" vertex="1">
          <mxGeometry x="749.75" y="-70" width="140" height="70" as="geometry" />
        </mxCell>
        <mxCell id="mqHruLJRzrLuczPYelR6-40" value="&amp;lt;&amp;lt;extend&amp;gt;&amp;gt;" style="html=1;verticalAlign=bottom;labelBackgroundColor=none;endArrow=open;endFill=0;dashed=1;rounded=0;entryX=1;entryY=0.5;entryDx=0;entryDy=0;exitX=0;exitY=0.5;exitDx=0;exitDy=0;" parent="1" source="mqHruLJRzrLuczPYelR6-39" target="Aiw2MCmzA_RACeRGijV2-4" edge="1">
          <mxGeometry width="160" relative="1" as="geometry">
            <mxPoint x="580.5" y="430" as="sourcePoint" />
            <mxPoint x="470.5" y="250" as="targetPoint" />
          </mxGeometry>
        </mxCell>
        <mxCell id="mqHruLJRzrLuczPYelR6-41" value="Log missing ingredients " style="ellipse;whiteSpace=wrap;html=1;" parent="1" vertex="1">
          <mxGeometry x="1140" y="-150" width="140" height="70" as="geometry" />
        </mxCell>
        <mxCell id="mqHruLJRzrLuczPYelR6-42" value="Extends" style="endArrow=block;endSize=16;endFill=0;html=1;rounded=0;exitX=0.005;exitY=0.433;exitDx=0;exitDy=0;exitPerimeter=0;entryX=1;entryY=0.5;entryDx=0;entryDy=0;" parent="1" source="mqHruLJRzrLuczPYelR6-41" target="mqHruLJRzrLuczPYelR6-39" edge="1">
          <mxGeometry width="160" relative="1" as="geometry">
            <mxPoint x="731" y="464" as="sourcePoint" />
            <mxPoint x="710" y="394" as="targetPoint" />
          </mxGeometry>
        </mxCell>
        <mxCell id="mqHruLJRzrLuczPYelR6-44" value="Most effective" style="ellipse;whiteSpace=wrap;html=1;" parent="1" vertex="1">
          <mxGeometry x="1295" y="-60" width="140" height="70" as="geometry" />
        </mxCell>
        <mxCell id="mqHruLJRzrLuczPYelR6-45" value="Cheapest" style="ellipse;whiteSpace=wrap;html=1;" parent="1" vertex="1">
          <mxGeometry x="1295" y="40" width="140" height="70" as="geometry" />
        </mxCell>
        <mxCell id="mqHruLJRzrLuczPYelR6-46" value="Alphabetically" style="ellipse;whiteSpace=wrap;html=1;" parent="1" vertex="1">
          <mxGeometry x="1275" y="130" width="140" height="70" as="geometry" />
        </mxCell>
        <mxCell id="mqHruLJRzrLuczPYelR6-47" value="Sort Bait" style="ellipse;whiteSpace=wrap;html=1;" parent="1" vertex="1">
          <mxGeometry x="670" y="40" width="140" height="70" as="geometry" />
        </mxCell>
        <mxCell id="mqHruLJRzrLuczPYelR6-48" value="Extends" style="endArrow=block;endSize=16;endFill=0;html=1;rounded=0;entryX=0.914;entryY=0.786;entryDx=0;entryDy=0;entryPerimeter=0;" parent="1" source="mqHruLJRzrLuczPYelR6-46" target="mqHruLJRzrLuczPYelR6-47" edge="1">
          <mxGeometry width="160" relative="1" as="geometry">
            <mxPoint x="992.5" y="278" as="sourcePoint" />
            <mxPoint x="987.5" y="164" as="targetPoint" />
          </mxGeometry>
        </mxCell>
        <mxCell id="mqHruLJRzrLuczPYelR6-49" value="Extends" style="endArrow=block;endSize=16;endFill=0;html=1;rounded=0;entryX=0.996;entryY=0.421;entryDx=0;entryDy=0;entryPerimeter=0;exitX=0;exitY=0.5;exitDx=0;exitDy=0;" parent="1" source="mqHruLJRzrLuczPYelR6-45" target="mqHruLJRzrLuczPYelR6-47" edge="1">
          <mxGeometry width="160" relative="1" as="geometry">
            <mxPoint x="1010" y="204" as="sourcePoint" />
            <mxPoint x="1170" y="204" as="targetPoint" />
            <Array as="points">
              <mxPoint x="810" y="69" />
            </Array>
          </mxGeometry>
        </mxCell>
        <mxCell id="mqHruLJRzrLuczPYelR6-50" value="Extends" style="endArrow=block;endSize=16;endFill=0;html=1;rounded=0;exitX=0.005;exitY=0.433;exitDx=0;exitDy=0;exitPerimeter=0;entryX=1;entryY=0;entryDx=0;entryDy=0;" parent="1" source="mqHruLJRzrLuczPYelR6-44" target="mqHruLJRzrLuczPYelR6-47" edge="1">
          <mxGeometry width="160" relative="1" as="geometry">
            <mxPoint x="1010" y="184" as="sourcePoint" />
            <mxPoint x="1170" y="184" as="targetPoint" />
            <Array as="points" />
          </mxGeometry>
        </mxCell>
        <mxCell id="mqHruLJRzrLuczPYelR6-51" value="&amp;lt;&amp;lt;include&amp;gt;&amp;gt;" style="html=1;verticalAlign=bottom;labelBackgroundColor=none;endArrow=open;endFill=0;dashed=1;rounded=0;exitX=1;exitY=0.5;exitDx=0;exitDy=0;entryX=0;entryY=0.5;entryDx=0;entryDy=0;" parent="1" source="ez_9y8IXUy5wVjMBMklD-80" target="mqHruLJRzrLuczPYelR6-47" edge="1">
          <mxGeometry width="160" relative="1" as="geometry">
            <mxPoint x="830" y="230" as="sourcePoint" />
            <mxPoint x="990" y="230" as="targetPoint" />
          </mxGeometry>
        </mxCell>
        <mxCell id="mqHruLJRzrLuczPYelR6-60" value="Edit profile" style="ellipse;whiteSpace=wrap;html=1;fillColor=#e1d5e7;strokeColor=#9673a6;" parent="1" vertex="1">
          <mxGeometry x="320" y="314" width="140" height="70" as="geometry" />
        </mxCell>
        <mxCell id="mqHruLJRzrLuczPYelR6-61" style="edgeStyle=orthogonalEdgeStyle;rounded=0;orthogonalLoop=1;jettySize=auto;html=1;entryX=0;entryY=0.5;entryDx=0;entryDy=0;exitX=1;exitY=1;exitDx=0;exitDy=0;exitPerimeter=0;" parent="1" source="ez_9y8IXUy5wVjMBMklD-1" target="mqHruLJRzrLuczPYelR6-60" edge="1">
          <mxGeometry relative="1" as="geometry">
            <mxPoint x="-25" y="30" as="sourcePoint" />
            <mxPoint x="320" y="295" as="targetPoint" />
            <Array as="points">
              <mxPoint x="50" y="50" />
              <mxPoint x="50" y="349" />
            </Array>
          </mxGeometry>
        </mxCell>
        <mxCell id="mqHruLJRzrLuczPYelR6-62" style="edgeStyle=orthogonalEdgeStyle;rounded=0;orthogonalLoop=1;jettySize=auto;html=1;entryX=0.021;entryY=0.671;entryDx=0;entryDy=0;exitX=0.5;exitY=0;exitDx=0;exitDy=0;exitPerimeter=0;entryPerimeter=0;fontStyle=1" parent="1" source="ez_9y8IXUy5wVjMBMklD-8" target="mqHruLJRzrLuczPYelR6-60" edge="1">
          <mxGeometry relative="1" as="geometry">
            <mxPoint x="140" y="380" as="sourcePoint" />
            <mxPoint x="330" y="305" as="targetPoint" />
          </mxGeometry>
        </mxCell>
        <mxCell id="mqHruLJRzrLuczPYelR6-63" value="Put in/Correct username" style="ellipse;whiteSpace=wrap;html=1;" parent="1" vertex="1">
          <mxGeometry x="1100" y="410" width="140" height="70" as="geometry" />
        </mxCell>
        <mxCell id="mqHruLJRzrLuczPYelR6-64" value="Put in/Correct Photo" style="ellipse;whiteSpace=wrap;html=1;" parent="1" vertex="1">
          <mxGeometry x="1110" y="500" width="140" height="70" as="geometry" />
        </mxCell>
        <mxCell id="mqHruLJRzrLuczPYelR6-65" value="Extends" style="endArrow=block;endSize=16;endFill=0;html=1;rounded=0;exitX=0;exitY=0.5;exitDx=0;exitDy=0;" parent="1" source="mqHruLJRzrLuczPYelR6-64" target="mqHruLJRzrLuczPYelR6-68" edge="1">
          <mxGeometry width="160" relative="1" as="geometry">
            <mxPoint x="771.5" y="534" as="sourcePoint" />
            <mxPoint x="801" y="474" as="targetPoint" />
          </mxGeometry>
        </mxCell>
        <mxCell id="mqHruLJRzrLuczPYelR6-66" value="Extends" style="endArrow=block;endSize=16;endFill=0;html=1;rounded=0;exitX=0.005;exitY=0.433;exitDx=0;exitDy=0;exitPerimeter=0;" parent="1" source="mqHruLJRzrLuczPYelR6-63" target="mqHruLJRzrLuczPYelR6-68" edge="1">
          <mxGeometry width="160" relative="1" as="geometry">
            <mxPoint x="500.75" y="544" as="sourcePoint" />
            <mxPoint x="810.5" y="384" as="targetPoint" />
          </mxGeometry>
        </mxCell>
        <mxCell id="mqHruLJRzrLuczPYelR6-68" value="Choose elements" style="ellipse;whiteSpace=wrap;html=1;" parent="1" vertex="1">
          <mxGeometry x="530" y="324" width="140" height="70" as="geometry" />
        </mxCell>
        <mxCell id="mqHruLJRzrLuczPYelR6-69" value="&amp;lt;&amp;lt;include&amp;gt;&amp;gt;" style="html=1;verticalAlign=bottom;labelBackgroundColor=none;endArrow=open;endFill=0;dashed=1;rounded=0;exitX=1;exitY=0.5;exitDx=0;exitDy=0;entryX=0;entryY=0.5;entryDx=0;entryDy=0;" parent="1" source="mqHruLJRzrLuczPYelR6-60" target="mqHruLJRzrLuczPYelR6-68" edge="1">
          <mxGeometry width="160" relative="1" as="geometry">
            <mxPoint x="400" y="394" as="sourcePoint" />
            <mxPoint x="560" y="394" as="targetPoint" />
          </mxGeometry>
        </mxCell>
        <mxCell id="mqHruLJRzrLuczPYelR6-70" value="Put in/Correct phone number" style="ellipse;whiteSpace=wrap;html=1;" parent="1" vertex="1">
          <mxGeometry x="1100" y="324" width="140" height="70" as="geometry" />
        </mxCell>
        <mxCell id="mqHruLJRzrLuczPYelR6-71" value="Extends" style="endArrow=block;endSize=16;endFill=0;html=1;rounded=0;exitX=0.005;exitY=0.433;exitDx=0;exitDy=0;exitPerimeter=0;" parent="1" source="mqHruLJRzrLuczPYelR6-70" target="mqHruLJRzrLuczPYelR6-68" edge="1">
          <mxGeometry width="160" relative="1" as="geometry">
            <mxPoint x="500.75" y="330" as="sourcePoint" />
            <mxPoint x="670" y="146" as="targetPoint" />
          </mxGeometry>
        </mxCell>
        <mxCell id="d70hiehiens7spyheg7w-2" value="&amp;nbsp;Shows good weather screen" style="ellipse;whiteSpace=wrap;html=1;" parent="1" vertex="1">
          <mxGeometry x="610" y="164" width="140" height="70" as="geometry" />
        </mxCell>
        <mxCell id="d70hiehiens7spyheg7w-4" value="Program next sunset" style="ellipse;whiteSpace=wrap;html=1;" parent="1" vertex="1">
          <mxGeometry x="859.75" y="244" width="140" height="70" as="geometry" />
        </mxCell>
        <mxCell id="d70hiehiens7spyheg7w-6" value="Program next sunrise" style="ellipse;whiteSpace=wrap;html=1;" parent="1" vertex="1">
          <mxGeometry x="882.25" y="149" width="140" height="70" as="geometry" />
        </mxCell>
        <mxCell id="d70hiehiens7spyheg7w-8" value="&amp;nbsp;Shows bad weather screen" style="ellipse;whiteSpace=wrap;html=1;" parent="1" vertex="1">
          <mxGeometry x="460" y="219" width="140" height="70" as="geometry" />
        </mxCell>
        <mxCell id="d70hiehiens7spyheg7w-9" value="&amp;lt;&amp;lt;extend&amp;gt;&amp;gt;" style="html=1;verticalAlign=bottom;labelBackgroundColor=none;endArrow=open;endFill=0;dashed=1;rounded=0;exitX=0;exitY=0.5;exitDx=0;exitDy=0;entryX=0;entryY=1;entryDx=0;entryDy=0;" parent="1" source="d70hiehiens7spyheg7w-8" target="Jjwb29D0cj085MuCLYyG-1" edge="1">
          <mxGeometry width="160" relative="1" as="geometry">
            <mxPoint x="490.96" y="372.97" as="sourcePoint" />
            <mxPoint x="319.99999999999994" y="179.99999999999997" as="targetPoint" />
          </mxGeometry>
        </mxCell>
        <mxCell id="d70hiehiens7spyheg7w-11" value="make/show friends" style="ellipse;whiteSpace=wrap;html=1;fillColor=#e1d5e7;strokeColor=#9673a6;" parent="1" vertex="1">
          <mxGeometry x="355" y="660" width="140" height="70" as="geometry" />
        </mxCell>
        <mxCell id="d70hiehiens7spyheg7w-13" value="&amp;lt;&amp;lt;include&amp;gt;&amp;gt;" style="html=1;verticalAlign=bottom;labelBackgroundColor=none;endArrow=open;endFill=0;dashed=1;rounded=0;exitX=1;exitY=0.5;exitDx=0;exitDy=0;entryX=0.006;entryY=0.607;entryDx=0;entryDy=0;entryPerimeter=0;" parent="1" source="d70hiehiens7spyheg7w-11" target="d70hiehiens7spyheg7w-14" edge="1">
          <mxGeometry width="160" relative="1" as="geometry">
            <mxPoint x="470" y="680" as="sourcePoint" />
            <mxPoint x="630" y="680" as="targetPoint" />
          </mxGeometry>
        </mxCell>
        <mxCell id="d70hiehiens7spyheg7w-14" value="Add friends" style="ellipse;whiteSpace=wrap;html=1;" parent="1" vertex="1">
          <mxGeometry x="660" y="640" width="140" height="70" as="geometry" />
        </mxCell>
        <mxCell id="d70hiehiens7spyheg7w-15" style="edgeStyle=orthogonalEdgeStyle;rounded=0;orthogonalLoop=1;jettySize=auto;html=1;entryX=0.5;entryY=0;entryDx=0;entryDy=0;exitX=0.75;exitY=0.1;exitDx=0;exitDy=0;exitPerimeter=0;" parent="1" source="ez_9y8IXUy5wVjMBMklD-8" target="d70hiehiens7spyheg7w-11" edge="1">
          <mxGeometry relative="1" as="geometry">
            <mxPoint x="175.75" y="490" as="sourcePoint" />
            <mxPoint x="423.75" y="932" as="targetPoint" />
          </mxGeometry>
        </mxCell>
        <mxCell id="d70hiehiens7spyheg7w-16" value="Search by phone/name" style="ellipse;whiteSpace=wrap;html=1;" parent="1" vertex="1">
          <mxGeometry x="779.75" y="515" width="140" height="70" as="geometry" />
        </mxCell>
        <mxCell id="d70hiehiens7spyheg7w-19" value="Extends" style="endArrow=block;endSize=16;endFill=0;html=1;rounded=0;" parent="1" source="d70hiehiens7spyheg7w-16" target="d70hiehiens7spyheg7w-14" edge="1">
          <mxGeometry width="160" relative="1" as="geometry">
            <mxPoint x="876.5" y="504" as="sourcePoint" />
            <mxPoint x="810.5" y="710" as="targetPoint" />
          </mxGeometry>
        </mxCell>
        <mxCell id="d70hiehiens7spyheg7w-20" value="&lt;div&gt;Can&#39;t find &lt;br&gt;&lt;/div&gt;&lt;div&gt;friend&lt;/div&gt;" style="ellipse;whiteSpace=wrap;html=1;" parent="1" vertex="1">
          <mxGeometry x="780" y="750" width="140" height="70" as="geometry" />
        </mxCell>
        <mxCell id="d70hiehiens7spyheg7w-21" value="&amp;lt;&amp;lt;extend&amp;gt;&amp;gt;" style="html=1;verticalAlign=bottom;labelBackgroundColor=none;endArrow=open;endFill=0;dashed=1;rounded=0;exitX=0.418;exitY=0.055;exitDx=0;exitDy=0;exitPerimeter=0;" parent="1" source="d70hiehiens7spyheg7w-20" target="d70hiehiens7spyheg7w-14" edge="1">
          <mxGeometry width="160" relative="1" as="geometry">
            <mxPoint x="520" y="720" as="sourcePoint" />
            <mxPoint x="680" y="720" as="targetPoint" />
          </mxGeometry>
        </mxCell>
        <mxCell id="d70hiehiens7spyheg7w-22" style="edgeStyle=orthogonalEdgeStyle;rounded=0;orthogonalLoop=1;jettySize=auto;html=1;exitX=0.5;exitY=0.5;exitDx=0;exitDy=0;exitPerimeter=0;entryX=0;entryY=0.5;entryDx=0;entryDy=0;" parent="1" source="ez_9y8IXUy5wVjMBMklD-1" target="d70hiehiens7spyheg7w-23" edge="1">
          <mxGeometry relative="1" as="geometry">
            <mxPoint x="-20" y="-165" as="sourcePoint" />
            <mxPoint x="225" y="-410" as="targetPoint" />
          </mxGeometry>
        </mxCell>
        <mxCell id="d70hiehiens7spyheg7w-23" value="Orders ingridients" style="ellipse;whiteSpace=wrap;html=1;fillColor=#e1d5e7;strokeColor=#9673a6;" parent="1" vertex="1">
          <mxGeometry x="240" y="-410" width="140" height="70" as="geometry" />
        </mxCell>
        <mxCell id="d70hiehiens7spyheg7w-24" value="Cancels order completely" style="ellipse;whiteSpace=wrap;html=1;" parent="1" vertex="1">
          <mxGeometry x="495" y="-360" width="140" height="70" as="geometry" />
        </mxCell>
        <mxCell id="d70hiehiens7spyheg7w-25" value="&amp;lt;&amp;lt;extend&amp;gt;&amp;gt;" style="html=1;verticalAlign=bottom;labelBackgroundColor=none;endArrow=open;endFill=0;dashed=1;rounded=0;entryX=0.993;entryY=0.618;entryDx=0;entryDy=0;exitX=0;exitY=0.5;exitDx=0;exitDy=0;entryPerimeter=0;" parent="1" source="d70hiehiens7spyheg7w-24" target="d70hiehiens7spyheg7w-23" edge="1">
          <mxGeometry width="160" relative="1" as="geometry">
            <mxPoint x="610" y="80" as="sourcePoint" />
            <mxPoint x="390" y="-355" as="targetPoint" />
          </mxGeometry>
        </mxCell>
        <mxCell id="d70hiehiens7spyheg7w-27" value="Chooses Producer" style="ellipse;whiteSpace=wrap;html=1;" parent="1" vertex="1">
          <mxGeometry x="635" y="-410" width="140" height="70" as="geometry" />
        </mxCell>
        <mxCell id="d70hiehiens7spyheg7w-28" value="Chooses Ingridients" style="ellipse;whiteSpace=wrap;html=1;" parent="1" vertex="1">
          <mxGeometry x="620" y="-500" width="140" height="70" as="geometry" />
        </mxCell>
        <mxCell id="d70hiehiens7spyheg7w-29" value="&amp;lt;&amp;lt;include&amp;gt;&amp;gt;" style="html=1;verticalAlign=bottom;labelBackgroundColor=none;endArrow=open;endFill=0;dashed=1;rounded=0;entryX=0;entryY=0.5;entryDx=0;entryDy=0;exitX=0.571;exitY=0;exitDx=0;exitDy=0;exitPerimeter=0;" parent="1" source="d70hiehiens7spyheg7w-23" target="d70hiehiens7spyheg7w-28" edge="1">
          <mxGeometry width="160" relative="1" as="geometry">
            <mxPoint x="470" y="-230" as="sourcePoint" />
            <mxPoint x="630" y="-230" as="targetPoint" />
          </mxGeometry>
        </mxCell>
        <mxCell id="d70hiehiens7spyheg7w-30" value="&amp;lt;&amp;lt;include&amp;gt;&amp;gt;" style="html=1;verticalAlign=bottom;labelBackgroundColor=none;endArrow=open;endFill=0;dashed=1;rounded=0;entryX=0;entryY=0.5;entryDx=0;entryDy=0;exitX=0.985;exitY=0.333;exitDx=0;exitDy=0;exitPerimeter=0;" parent="1" source="d70hiehiens7spyheg7w-23" target="d70hiehiens7spyheg7w-27" edge="1">
          <mxGeometry width="160" relative="1" as="geometry">
            <mxPoint x="470" y="-230" as="sourcePoint" />
            <mxPoint x="630" y="-230" as="targetPoint" />
          </mxGeometry>
        </mxCell>
        <mxCell id="d70hiehiens7spyheg7w-31" style="edgeStyle=orthogonalEdgeStyle;rounded=0;orthogonalLoop=1;jettySize=auto;html=1;entryX=0.944;entryY=0.224;entryDx=0;entryDy=0;entryPerimeter=0;exitX=0.5;exitY=0.5;exitDx=0;exitDy=0;exitPerimeter=0;" parent="1" source="ez_9y8IXUy5wVjMBMklD-1" target="d70hiehiens7spyheg7w-11" edge="1">
          <mxGeometry relative="1" as="geometry">
            <mxPoint x="70" y="40" as="sourcePoint" />
            <mxPoint x="494.92" y="659.9999999999999" as="targetPoint" />
            <Array as="points">
              <mxPoint x="24" y="20" />
              <mxPoint x="24" y="397" />
              <mxPoint x="495" y="397" />
              <mxPoint x="495" y="676" />
            </Array>
          </mxGeometry>
        </mxCell>
        <mxCell id="Aiw2MCmzA_RACeRGijV2-4" value="Chooses dish" style="ellipse;whiteSpace=wrap;html=1;" parent="1" vertex="1">
          <mxGeometry x="460" y="-60" width="140" height="70" as="geometry" />
        </mxCell>
        <mxCell id="Aiw2MCmzA_RACeRGijV2-5" value="&amp;lt;&amp;lt;include&amp;gt;&amp;gt;" style="html=1;verticalAlign=bottom;labelBackgroundColor=none;endArrow=open;endFill=0;dashed=1;rounded=0;exitX=1;exitY=0.5;exitDx=0;exitDy=0;entryX=0;entryY=0.5;entryDx=0;entryDy=0;" parent="1" source="ez_9y8IXUy5wVjMBMklD-15" target="Aiw2MCmzA_RACeRGijV2-4" edge="1">
          <mxGeometry x="-0.0488" y="14" width="160" relative="1" as="geometry">
            <mxPoint x="470" y="49" as="sourcePoint" />
            <mxPoint x="680" y="85" as="targetPoint" />
            <mxPoint as="offset" />
          </mxGeometry>
        </mxCell>
        <mxCell id="94mmKuE0Teior1SnlnPN-1" value="Record current Date" style="ellipse;whiteSpace=wrap;html=1;" parent="1" vertex="1">
          <mxGeometry x="889.75" y="-405" width="110" height="60" as="geometry" />
        </mxCell>
        <mxCell id="94mmKuE0Teior1SnlnPN-2" value="Enter type of &lt;br&gt;the Fish" style="ellipse;whiteSpace=wrap;html=1;" parent="1" vertex="1">
          <mxGeometry x="882.25" y="-330" width="125" height="60" as="geometry" />
        </mxCell>
        <mxCell id="94mmKuE0Teior1SnlnPN-3" value="Enter Quantity &lt;br&gt;of Fish" style="ellipse;whiteSpace=wrap;html=1;" parent="1" vertex="1">
          <mxGeometry x="779.75" y="-270" width="110" height="60" as="geometry" />
        </mxCell>
        <mxCell id="94mmKuE0Teior1SnlnPN-7" value="Enter Average weight&lt;br&gt;(in Kg)" style="ellipse;whiteSpace=wrap;html=1;" parent="1" vertex="1">
          <mxGeometry x="645" y="-210" width="110" height="60" as="geometry" />
        </mxCell>
        <mxCell id="94mmKuE0Teior1SnlnPN-9" value="Check &lt;br&gt;if illegal" style="ellipse;whiteSpace=wrap;html=1;" parent="1" vertex="1">
          <mxGeometry x="976.5" y="-210" width="90" height="40" as="geometry" />
        </mxCell>
        <mxCell id="94mmKuE0Teior1SnlnPN-11" value="Enter Info" style="ellipse;whiteSpace=wrap;html=1;" parent="1" vertex="1">
          <mxGeometry x="425" y="-250" width="110" height="60" as="geometry" />
        </mxCell>
        <mxCell id="94mmKuE0Teior1SnlnPN-12" value="&amp;lt;&amp;lt;include&amp;gt;&amp;gt;" style="html=1;verticalAlign=bottom;labelBackgroundColor=none;endArrow=open;endFill=0;dashed=1;rounded=0;exitX=1;exitY=0.5;exitDx=0;exitDy=0;entryX=0.018;entryY=0.656;entryDx=0;entryDy=0;entryPerimeter=0;" parent="1" target="94mmKuE0Teior1SnlnPN-11" edge="1">
          <mxGeometry x="-0.007" y="15" width="160" relative="1" as="geometry">
            <mxPoint x="350" y="-220" as="sourcePoint" />
            <mxPoint x="390" y="-170" as="targetPoint" />
            <mxPoint as="offset" />
          </mxGeometry>
        </mxCell>
        <mxCell id="94mmKuE0Teior1SnlnPN-14" value="Extends" style="endArrow=block;endSize=16;endFill=0;html=1;rounded=0;exitX=0;exitY=0;exitDx=0;exitDy=0;entryX=0.995;entryY=0.364;entryDx=0;entryDy=0;entryPerimeter=0;" parent="1" source="94mmKuE0Teior1SnlnPN-2" edge="1">
          <mxGeometry x="-0.4321" y="-8" width="160" relative="1" as="geometry">
            <mxPoint x="820" y="-315" as="sourcePoint" />
            <mxPoint x="528" y="-230" as="targetPoint" />
            <Array as="points" />
            <mxPoint as="offset" />
          </mxGeometry>
        </mxCell>
        <mxCell id="94mmKuE0Teior1SnlnPN-15" value="Extends" style="endArrow=block;endSize=16;endFill=0;html=1;rounded=0;exitX=0.033;exitY=0.419;exitDx=0;exitDy=0;entryX=0.995;entryY=0.364;entryDx=0;entryDy=0;entryPerimeter=0;exitPerimeter=0;" parent="1" source="94mmKuE0Teior1SnlnPN-3" edge="1">
          <mxGeometry x="-0.4321" y="-8" width="160" relative="1" as="geometry">
            <mxPoint x="830" y="-305" as="sourcePoint" />
            <mxPoint x="538" y="-220" as="targetPoint" />
            <Array as="points" />
            <mxPoint as="offset" />
          </mxGeometry>
        </mxCell>
        <mxCell id="94mmKuE0Teior1SnlnPN-16" value="Extends" style="endArrow=block;endSize=16;endFill=0;html=1;rounded=0;exitX=0;exitY=0;exitDx=0;exitDy=0;entryX=0.639;entryY=1.003;entryDx=0;entryDy=0;entryPerimeter=0;" parent="1" source="94mmKuE0Teior1SnlnPN-7" target="94mmKuE0Teior1SnlnPN-11" edge="1">
          <mxGeometry x="0.1471" y="12" width="160" relative="1" as="geometry">
            <mxPoint x="674" y="-205" as="sourcePoint" />
            <mxPoint x="548" y="-210" as="targetPoint" />
            <Array as="points" />
            <mxPoint as="offset" />
          </mxGeometry>
        </mxCell>
        <mxCell id="94mmKuE0Teior1SnlnPN-17" value="&amp;lt;&amp;lt;extend&amp;gt;&amp;gt;" style="html=1;verticalAlign=bottom;labelBackgroundColor=none;endArrow=open;endFill=0;dashed=1;rounded=0;entryX=1;entryY=0.5;entryDx=0;entryDy=0;exitX=0.078;exitY=0.875;exitDx=0;exitDy=0;exitPerimeter=0;" parent="1" source="94mmKuE0Teior1SnlnPN-9" target="94mmKuE0Teior1SnlnPN-7" edge="1">
          <mxGeometry x="-0.0562" y="17" width="160" relative="1" as="geometry">
            <mxPoint x="725" y="-170" as="sourcePoint" />
            <mxPoint x="655" y="-150" as="targetPoint" />
            <mxPoint as="offset" />
          </mxGeometry>
        </mxCell>
        <mxCell id="M9Opp2l1FzuZbtuMcGzQ-1" value="Chooses Quantity" style="ellipse;whiteSpace=wrap;html=1;" parent="1" vertex="1">
          <mxGeometry x="920" y="-500" width="140" height="70" as="geometry" />
        </mxCell>
        <mxCell id="M9Opp2l1FzuZbtuMcGzQ-2" value="Extends" style="endArrow=block;endSize=16;endFill=0;html=1;rounded=0;exitX=0;exitY=0.5;exitDx=0;exitDy=0;entryX=1;entryY=0.5;entryDx=0;entryDy=0;" parent="1" source="M9Opp2l1FzuZbtuMcGzQ-1" target="d70hiehiens7spyheg7w-28" edge="1">
          <mxGeometry x="-0.4321" y="-8" width="160" relative="1" as="geometry">
            <mxPoint x="900" y="-365" as="sourcePoint" />
            <mxPoint x="528" y="-230" as="targetPoint" />
            <Array as="points" />
            <mxPoint as="offset" />
          </mxGeometry>
        </mxCell>
        <mxCell id="M9Opp2l1FzuZbtuMcGzQ-3" value="Save to chart" style="ellipse;whiteSpace=wrap;html=1;" parent="1" vertex="1">
          <mxGeometry x="490" y="1040" width="140" height="70" as="geometry" />
        </mxCell>
        <mxCell id="M9Opp2l1FzuZbtuMcGzQ-4" value="&amp;lt;&amp;lt;include&amp;gt;&amp;gt;" style="html=1;verticalAlign=bottom;labelBackgroundColor=none;endArrow=open;endFill=0;dashed=1;rounded=0;exitX=0;exitY=1;exitDx=0;exitDy=0;entryX=0.554;entryY=0.051;entryDx=0;entryDy=0;entryPerimeter=0;" parent="1" source="M9Opp2l1FzuZbtuMcGzQ-6" target="M9Opp2l1FzuZbtuMcGzQ-3" edge="1">
          <mxGeometry width="160" relative="1" as="geometry">
            <mxPoint x="670" y="1030" as="sourcePoint" />
            <mxPoint x="830" y="1030" as="targetPoint" />
          </mxGeometry>
        </mxCell>
        <mxCell id="M9Opp2l1FzuZbtuMcGzQ-6" value="Select food" style="ellipse;whiteSpace=wrap;html=1;" parent="1" vertex="1">
          <mxGeometry x="650" y="910" width="140" height="70" as="geometry" />
        </mxCell>
        <mxCell id="M9Opp2l1FzuZbtuMcGzQ-7" value="Extends" style="endArrow=block;endSize=16;endFill=0;html=1;rounded=0;exitX=0.025;exitY=0.339;exitDx=0;exitDy=0;exitPerimeter=0;entryX=0.955;entryY=0.34;entryDx=0;entryDy=0;entryPerimeter=0;" parent="1" source="ez_9y8IXUy5wVjMBMklD-34" target="M9Opp2l1FzuZbtuMcGzQ-6" edge="1">
          <mxGeometry x="-0.1237" width="160" relative="1" as="geometry">
            <mxPoint x="892" y="830" as="sourcePoint" />
            <mxPoint x="775" y="920" as="targetPoint" />
            <mxPoint y="1" as="offset" />
          </mxGeometry>
        </mxCell>
        <mxCell id="M9Opp2l1FzuZbtuMcGzQ-9" value="&amp;lt;&amp;lt;include&amp;gt;&amp;gt;" style="html=1;verticalAlign=bottom;labelBackgroundColor=none;endArrow=open;endFill=0;dashed=1;rounded=0;exitX=1;exitY=0.5;exitDx=0;exitDy=0;entryX=0.087;entryY=0.237;entryDx=0;entryDy=0;entryPerimeter=0;" parent="1" source="ez_9y8IXUy5wVjMBMklD-17" target="M9Opp2l1FzuZbtuMcGzQ-6" edge="1">
          <mxGeometry width="160" relative="1" as="geometry">
            <mxPoint x="651" y="970" as="sourcePoint" />
            <mxPoint x="623" y="1064" as="targetPoint" />
          </mxGeometry>
        </mxCell>
        <mxCell id="M9Opp2l1FzuZbtuMcGzQ-11" value="&lt;div&gt;Confirm order&lt;/div&gt;" style="ellipse;whiteSpace=wrap;html=1;" parent="1" vertex="1">
          <mxGeometry x="920" y="940" width="140" height="70" as="geometry" />
        </mxCell>
        <mxCell id="M9Opp2l1FzuZbtuMcGzQ-12" value="Extends" style="endArrow=block;endSize=16;endFill=0;html=1;rounded=0;exitX=0.025;exitY=0.339;exitDx=0;exitDy=0;exitPerimeter=0;entryX=1;entryY=1;entryDx=0;entryDy=0;" parent="1" source="M9Opp2l1FzuZbtuMcGzQ-11" target="M9Opp2l1FzuZbtuMcGzQ-6" edge="1">
          <mxGeometry x="-0.1237" width="160" relative="1" as="geometry">
            <mxPoint x="880.25" y="920" as="sourcePoint" />
            <mxPoint x="737.25" y="994" as="targetPoint" />
            <mxPoint y="1" as="offset" />
          </mxGeometry>
        </mxCell>
        <mxCell id="Jjwb29D0cj085MuCLYyG-1" value="&lt;div&gt;Presents weather&amp;nbsp;&lt;/div&gt;&lt;div&gt;report&lt;/div&gt;" style="ellipse;whiteSpace=wrap;html=1;" parent="1" vertex="1">
          <mxGeometry x="425" y="100" width="140" height="70" as="geometry" />
        </mxCell>
        <mxCell id="Jjwb29D0cj085MuCLYyG-3" value="&amp;lt;&amp;lt;extend&amp;gt;&amp;gt;" style="html=1;verticalAlign=bottom;labelBackgroundColor=none;endArrow=open;endFill=0;dashed=1;rounded=0;entryX=0.993;entryY=0.657;entryDx=0;entryDy=0;entryPerimeter=0;exitX=0;exitY=0.5;exitDx=0;exitDy=0;" parent="1" source="d70hiehiens7spyheg7w-2" target="Jjwb29D0cj085MuCLYyG-1" edge="1">
          <mxGeometry width="160" relative="1" as="geometry">
            <mxPoint x="600" y="250" as="sourcePoint" />
            <mxPoint x="535" y="190" as="targetPoint" />
          </mxGeometry>
        </mxCell>
        <mxCell id="Jjwb29D0cj085MuCLYyG-4" value="&amp;lt;&amp;lt;include&amp;gt;&amp;gt;" style="html=1;verticalAlign=bottom;labelBackgroundColor=none;endArrow=open;endFill=0;dashed=1;rounded=0;entryX=0.004;entryY=0.383;entryDx=0;entryDy=0;entryPerimeter=0;" parent="1" source="ez_9y8IXUy5wVjMBMklD-28" target="Jjwb29D0cj085MuCLYyG-1" edge="1">
          <mxGeometry width="160" relative="1" as="geometry">
            <mxPoint x="225" y="74" as="sourcePoint" />
            <mxPoint x="435" y="110" as="targetPoint" />
          </mxGeometry>
        </mxCell>
        <mxCell id="IiogD9dz0fBT5JTfqE4u-3" value="Show dish list" style="ellipse;whiteSpace=wrap;html=1;" parent="1" vertex="1">
          <mxGeometry x="620" y="-140" width="140" height="70" as="geometry" />
        </mxCell>
        <mxCell id="IiogD9dz0fBT5JTfqE4u-4" value="&amp;lt;&amp;lt;extend&amp;gt;&amp;gt;" style="html=1;verticalAlign=bottom;labelBackgroundColor=none;endArrow=open;endFill=0;dashed=1;rounded=0;entryX=0.5;entryY=0;entryDx=0;entryDy=0;exitX=0;exitY=0.5;exitDx=0;exitDy=0;" parent="1" source="IiogD9dz0fBT5JTfqE4u-3" target="Aiw2MCmzA_RACeRGijV2-4" edge="1">
          <mxGeometry width="160" relative="1" as="geometry">
            <mxPoint x="490" y="-150" as="sourcePoint" />
            <mxPoint x="335" y="-110" as="targetPoint" />
          </mxGeometry>
        </mxCell>
        <mxCell id="OXV0mHm9xrA-fbj11zcC-1" value="&amp;lt;&amp;lt;include&amp;gt;&amp;gt;" style="html=1;verticalAlign=bottom;labelBackgroundColor=none;endArrow=open;endFill=0;dashed=1;rounded=0;entryX=0;entryY=0.5;entryDx=0;entryDy=0;exitX=0.759;exitY=0.063;exitDx=0;exitDy=0;exitPerimeter=0;" parent="1" source="94mmKuE0Teior1SnlnPN-11" target="94mmKuE0Teior1SnlnPN-1" edge="1">
          <mxGeometry width="160" relative="1" as="geometry">
            <mxPoint x="670" y="-255" as="sourcePoint" />
            <mxPoint x="970" y="-310" as="targetPoint" />
          </mxGeometry>
        </mxCell>
        <mxCell id="wi-YR622ggRioaZD-bpC-1" value="&lt;div&gt;Choose automation&lt;/div&gt;&lt;div&gt;or specific date&lt;/div&gt;" style="ellipse;whiteSpace=wrap;html=1;" parent="1" vertex="1">
          <mxGeometry x="1091.5" y="214" width="140" height="70" as="geometry" />
        </mxCell>
        <mxCell id="wi-YR622ggRioaZD-bpC-2" value="Extends" style="endArrow=block;endSize=16;endFill=0;html=1;rounded=0;entryX=0;entryY=0.5;entryDx=0;entryDy=0;exitX=1;exitY=0.5;exitDx=0;exitDy=0;" parent="1" source="d70hiehiens7spyheg7w-2" target="d70hiehiens7spyheg7w-6" edge="1">
          <mxGeometry width="160" relative="1" as="geometry">
            <mxPoint x="1246" y="286" as="sourcePoint" />
            <mxPoint x="760" y="280" as="targetPoint" />
          </mxGeometry>
        </mxCell>
        <mxCell id="wi-YR622ggRioaZD-bpC-3" value="Extends" style="endArrow=block;endSize=16;endFill=0;html=1;rounded=0;entryX=0;entryY=0.5;entryDx=0;entryDy=0;exitX=0.8;exitY=0.918;exitDx=0;exitDy=0;exitPerimeter=0;" parent="1" source="d70hiehiens7spyheg7w-2" target="d70hiehiens7spyheg7w-4" edge="1">
          <mxGeometry width="160" relative="1" as="geometry">
            <mxPoint x="810" y="295" as="sourcePoint" />
            <mxPoint x="942" y="280" as="targetPoint" />
          </mxGeometry>
        </mxCell>
        <mxCell id="wi-YR622ggRioaZD-bpC-4" value="&amp;lt;&amp;lt;include&amp;gt;&amp;gt;" style="html=1;verticalAlign=bottom;labelBackgroundColor=none;endArrow=open;endFill=0;dashed=1;rounded=0;exitX=0.973;exitY=0.679;exitDx=0;exitDy=0;entryX=0;entryY=0.5;entryDx=0;entryDy=0;exitPerimeter=0;" parent="1" source="d70hiehiens7spyheg7w-6" target="wi-YR622ggRioaZD-bpC-1" edge="1">
          <mxGeometry width="160" relative="1" as="geometry">
            <mxPoint x="1060" y="340" as="sourcePoint" />
            <mxPoint x="1270" y="376" as="targetPoint" />
          </mxGeometry>
        </mxCell>
        <mxCell id="wi-YR622ggRioaZD-bpC-5" value="&amp;lt;&amp;lt;include&amp;gt;&amp;gt;" style="html=1;verticalAlign=bottom;labelBackgroundColor=none;endArrow=open;endFill=0;dashed=1;rounded=0;exitX=1;exitY=0.5;exitDx=0;exitDy=0;" parent="1" source="d70hiehiens7spyheg7w-4" target="wi-YR622ggRioaZD-bpC-1" edge="1">
          <mxGeometry width="160" relative="1" as="geometry">
            <mxPoint x="1050" y="310" as="sourcePoint" />
            <mxPoint x="1260" y="346" as="targetPoint" />
          </mxGeometry>
        </mxCell>
        <mxCell id="wi-YR622ggRioaZD-bpC-6" value="&amp;lt;&amp;lt;extend&amp;gt;&amp;gt;" style="html=1;verticalAlign=bottom;labelBackgroundColor=none;endArrow=open;endFill=0;dashed=1;rounded=0;exitX=1.013;exitY=0.357;exitDx=0;exitDy=0;exitPerimeter=0;entryX=0.006;entryY=0.347;entryDx=0;entryDy=0;entryPerimeter=0;" parent="1" source="mqHruLJRzrLuczPYelR6-70" target="wi-YR622ggRioaZD-bpC-7" edge="1">
          <mxGeometry width="160" relative="1" as="geometry">
            <mxPoint x="1325" y="349" as="sourcePoint" />
            <mxPoint x="1426" y="324" as="targetPoint" />
          </mxGeometry>
        </mxCell>
        <mxCell id="wi-YR622ggRioaZD-bpC-7" value="Wrong formatting on phone number.&lt;span style=&quot;white-space: pre;&quot;&gt;&#x9;&lt;/span&gt;" style="ellipse;whiteSpace=wrap;html=1;" parent="1" vertex="1">
          <mxGeometry x="1360" y="270" width="150" height="80" as="geometry" />
        </mxCell>
        <mxCell id="wi-YR622ggRioaZD-bpC-8" value="&amp;lt;&amp;lt;extend&amp;gt;&amp;gt;" style="html=1;verticalAlign=bottom;labelBackgroundColor=none;endArrow=open;endFill=0;dashed=1;rounded=0;entryX=0.006;entryY=0.347;entryDx=0;entryDy=0;entryPerimeter=0;" parent="1" source="mqHruLJRzrLuczPYelR6-63" target="wi-YR622ggRioaZD-bpC-9" edge="1">
          <mxGeometry width="160" relative="1" as="geometry">
            <mxPoint x="1250" y="453" as="sourcePoint" />
            <mxPoint x="1434" y="428" as="targetPoint" />
          </mxGeometry>
        </mxCell>
        <mxCell id="wi-YR622ggRioaZD-bpC-9" value="&lt;div&gt;Wrong formatting on username.&lt;/div&gt;" style="ellipse;whiteSpace=wrap;html=1;" parent="1" vertex="1">
          <mxGeometry x="1368" y="370" width="140" height="70" as="geometry" />
        </mxCell>
        <mxCell id="wi-YR622ggRioaZD-bpC-10" value="&amp;lt;&amp;lt;include&amp;gt;&amp;gt;" style="html=1;verticalAlign=bottom;labelBackgroundColor=none;endArrow=open;endFill=0;dashed=1;rounded=0;exitX=0.809;exitY=0.939;exitDx=0;exitDy=0;exitPerimeter=0;entryX=0.023;entryY=0.624;entryDx=0;entryDy=0;entryPerimeter=0;" parent="1" source="ez_9y8IXUy5wVjMBMklD-20" target="wi-YR622ggRioaZD-bpC-11" edge="1">
          <mxGeometry x="-0.0442" y="8" width="160" relative="1" as="geometry">
            <mxPoint x="720" y="1340" as="sourcePoint" />
            <mxPoint x="920" y="1260" as="targetPoint" />
            <mxPoint as="offset" />
          </mxGeometry>
        </mxCell>
        <mxCell id="wi-YR622ggRioaZD-bpC-11" value="Choose food" style="ellipse;whiteSpace=wrap;html=1;" parent="1" vertex="1">
          <mxGeometry x="940.5" y="1180" width="140" height="70" as="geometry" />
        </mxCell>
        <mxCell id="wi-YR622ggRioaZD-bpC-12" value="Did not choose message" style="ellipse;whiteSpace=wrap;html=1;" parent="1" vertex="1">
          <mxGeometry x="1240" y="1190" width="140" height="70" as="geometry" />
        </mxCell>
        <mxCell id="wi-YR622ggRioaZD-bpC-13" value="&amp;lt;&amp;lt;extend&amp;gt;&amp;gt;" style="html=1;verticalAlign=bottom;labelBackgroundColor=none;endArrow=open;endFill=0;dashed=1;rounded=0;exitX=0.418;exitY=0.055;exitDx=0;exitDy=0;exitPerimeter=0;entryX=0.729;entryY=0.947;entryDx=0;entryDy=0;entryPerimeter=0;" parent="1" source="wi-YR622ggRioaZD-bpC-12" target="mqHruLJRzrLuczPYelR6-31" edge="1">
          <mxGeometry width="160" relative="1" as="geometry">
            <mxPoint x="1235" y="1160.5" as="sourcePoint" />
            <mxPoint x="1380" y="1149.5" as="targetPoint" />
          </mxGeometry>
        </mxCell>
        <mxCell id="wi-YR622ggRioaZD-bpC-14" value="&amp;lt;&amp;lt;extend&amp;gt;&amp;gt;" style="html=1;verticalAlign=bottom;labelBackgroundColor=none;endArrow=open;endFill=0;dashed=1;rounded=0;exitX=0.014;exitY=0.357;exitDx=0;exitDy=0;exitPerimeter=0;entryX=1;entryY=0.5;entryDx=0;entryDy=0;" parent="1" source="wi-YR622ggRioaZD-bpC-12" target="wi-YR622ggRioaZD-bpC-11" edge="1">
          <mxGeometry width="160" relative="1" as="geometry">
            <mxPoint x="1315" y="1268" as="sourcePoint" />
            <mxPoint x="1170" y="1220" as="targetPoint" />
          </mxGeometry>
        </mxCell>
        <mxCell id="wi-YR622ggRioaZD-bpC-15" value="&amp;lt;&amp;lt;extend&amp;gt;&amp;gt;" style="html=1;verticalAlign=bottom;labelBackgroundColor=none;endArrow=open;endFill=0;dashed=1;rounded=0;entryX=0.979;entryY=0.675;entryDx=0;entryDy=0;entryPerimeter=0;exitX=0.045;exitY=0.271;exitDx=0;exitDy=0;exitPerimeter=0;" parent="1" source="wi-YR622ggRioaZD-bpC-17" target="mqHruLJRzrLuczPYelR6-31" edge="1">
          <mxGeometry width="160" relative="1" as="geometry">
            <mxPoint x="1549" y="1300" as="sourcePoint" />
            <mxPoint x="1400" y="1320" as="targetPoint" />
          </mxGeometry>
        </mxCell>
        <mxCell id="wi-YR622ggRioaZD-bpC-17" value="Confirm and log Rating" style="ellipse;whiteSpace=wrap;html=1;" parent="1" vertex="1">
          <mxGeometry x="1380" y="1130" width="140" height="70" as="geometry" />
        </mxCell>
        <mxCell id="1NdU0dWV3dadF3cTABzZ-1" value="Autocomplete" style="ellipse;whiteSpace=wrap;html=1;" parent="1" vertex="1">
          <mxGeometry x="580" y="500" width="140" height="70" as="geometry" />
        </mxCell>
        <mxCell id="1NdU0dWV3dadF3cTABzZ-3" value="View friends" style="ellipse;whiteSpace=wrap;html=1;" parent="1" vertex="1">
          <mxGeometry x="540" y="750" width="140" height="70" as="geometry" />
        </mxCell>
        <mxCell id="1NdU0dWV3dadF3cTABzZ-5" value="&amp;lt;&amp;lt;include&amp;gt;&amp;gt;" style="html=1;verticalAlign=bottom;labelBackgroundColor=none;endArrow=open;endFill=0;dashed=1;rounded=0;" parent="1" source="d70hiehiens7spyheg7w-11" target="1NdU0dWV3dadF3cTABzZ-3" edge="1">
          <mxGeometry width="160" relative="1" as="geometry">
            <mxPoint x="610" y="938" as="sourcePoint" />
            <mxPoint x="802" y="900" as="targetPoint" />
          </mxGeometry>
        </mxCell>
        <mxCell id="1NdU0dWV3dadF3cTABzZ-6" value="Already friends" style="ellipse;whiteSpace=wrap;html=1;" parent="1" vertex="1">
          <mxGeometry x="850" y="660" width="140" height="70" as="geometry" />
        </mxCell>
        <mxCell id="1NdU0dWV3dadF3cTABzZ-7" value="&amp;lt;&amp;lt;extend&amp;gt;&amp;gt;" style="html=1;verticalAlign=bottom;labelBackgroundColor=none;endArrow=open;endFill=0;dashed=1;rounded=0;" parent="1" source="1NdU0dWV3dadF3cTABzZ-6" target="d70hiehiens7spyheg7w-14" edge="1">
          <mxGeometry width="160" relative="1" as="geometry">
            <mxPoint x="853" y="865" as="sourcePoint" />
            <mxPoint x="850" y="810" as="targetPoint" />
          </mxGeometry>
        </mxCell>
        <mxCell id="1NdU0dWV3dadF3cTABzZ-8" value="Fetch all recipes" style="ellipse;whiteSpace=wrap;html=1;" vertex="1" parent="1">
          <mxGeometry x="470" y="1310" width="140" height="70" as="geometry" />
        </mxCell>
        <mxCell id="wi-YR622ggRioaZD-bpC-18" value="&amp;lt;&amp;lt;include&amp;gt;&amp;gt;" style="html=1;verticalAlign=bottom;labelBackgroundColor=none;endArrow=open;endFill=0;dashed=1;rounded=0;exitX=0.242;exitY=0.041;exitDx=0;exitDy=0;entryX=0.632;entryY=1.013;entryDx=0;entryDy=0;entryPerimeter=0;exitPerimeter=0;" parent="1" source="d70hiehiens7spyheg7w-14" target="1NdU0dWV3dadF3cTABzZ-1" edge="1">
          <mxGeometry width="160" relative="1" as="geometry">
            <mxPoint x="660" y="623" as="sourcePoint" />
            <mxPoint x="826" y="610" as="targetPoint" />
          </mxGeometry>
        </mxCell>
        <mxCell id="1NdU0dWV3dadF3cTABzZ-11" value="&amp;lt;&amp;lt;include&amp;gt;&amp;gt;" style="html=1;verticalAlign=bottom;labelBackgroundColor=none;endArrow=open;endFill=0;dashed=1;rounded=0;" edge="1" parent="1" source="ez_9y8IXUy5wVjMBMklD-30" target="1NdU0dWV3dadF3cTABzZ-8">
          <mxGeometry x="-0.0442" y="8" width="160" relative="1" as="geometry">
            <mxPoint x="620" y="1537" as="sourcePoint" />
            <mxPoint x="802" y="1470" as="targetPoint" />
            <mxPoint as="offset" />
          </mxGeometry>
        </mxCell>
      </root>
    </mxGraphModel>
  </diagram>
</mxfile>
